<mxfile host="app.diagrams.net" agent="Mozilla/5.0 (Macintosh; Intel Mac OS X 10.15; rv:133.0) Gecko/20100101 Firefox/133.0" version="26.0.4">
  <diagram name="Page-1" id="822b0af5-4adb-64df-f703-e8dfc1f81529">
    <mxGraphModel dx="919" dy="1690" grid="1" gridSize="10" guides="1" tooltips="1" connect="1" arrows="1" fold="1" page="1" pageScale="1" pageWidth="1100" pageHeight="850" background="none" math="0" shadow="0">
      <root>
        <mxCell id="0" />
        <mxCell id="1" parent="0" />
        <mxCell id="gIgE7tI3_6TQe3j7vcs4-1" value="" style="ellipse;shape=cloud;whiteSpace=wrap;html=1;" vertex="1" parent="1">
          <mxGeometry x="250" y="180" width="640" height="548" as="geometry" />
        </mxCell>
        <mxCell id="gIgE7tI3_6TQe3j7vcs4-51" value="" style="rounded=1;whiteSpace=wrap;html=1;fillColor=#dae8fc;strokeColor=#6c8ebf;" vertex="1" parent="1">
          <mxGeometry x="420" y="320" width="340" height="270" as="geometry" />
        </mxCell>
        <mxCell id="gIgE7tI3_6TQe3j7vcs4-2" value="&lt;div&gt;Azure&lt;/div&gt;&lt;div&gt;GovCloud&lt;/div&gt;" style="text;html=1;align=center;verticalAlign=middle;whiteSpace=wrap;rounded=0;fontStyle=1;fontSize=20;fontColor=#707070;" vertex="1" parent="1">
          <mxGeometry x="427.45" y="260" width="180" height="35" as="geometry" />
        </mxCell>
        <mxCell id="gIgE7tI3_6TQe3j7vcs4-31" value="" style="rounded=0;whiteSpace=wrap;html=1;fillColor=#fff2cc;strokeColor=#d6b656;" vertex="1" parent="1">
          <mxGeometry x="427.45" y="-20" width="255" height="140" as="geometry" />
        </mxCell>
        <mxCell id="gIgE7tI3_6TQe3j7vcs4-32" value="DAO On-Prem" style="text;html=1;align=center;verticalAlign=middle;whiteSpace=wrap;rounded=0;fontStyle=1" vertex="1" parent="1">
          <mxGeometry x="437" y="-10" width="85" height="30" as="geometry" />
        </mxCell>
        <mxCell id="gIgE7tI3_6TQe3j7vcs4-47" value="" style="rounded=0;whiteSpace=wrap;html=1;" vertex="1" parent="1">
          <mxGeometry x="435" y="350" width="305" height="220" as="geometry" />
        </mxCell>
        <mxCell id="gIgE7tI3_6TQe3j7vcs4-43" value="CMS Server" style="verticalLabelPosition=bottom;html=1;verticalAlign=top;align=center;strokeColor=none;fillColor=#00BEF2;shape=mxgraph.azure.computer;pointerEvents=1;" vertex="1" parent="1">
          <mxGeometry x="536.9" y="40" width="36.11" height="32.5" as="geometry" />
        </mxCell>
        <mxCell id="gIgE7tI3_6TQe3j7vcs4-44" style="edgeStyle=orthogonalEdgeStyle;rounded=1;orthogonalLoop=1;jettySize=auto;html=1;exitX=0.5;exitY=1;exitDx=0;exitDy=0;entryX=0.429;entryY=0;entryDx=0;entryDy=0;entryPerimeter=0;curved=0;strokeWidth=3;" edge="1" parent="1" source="gIgE7tI3_6TQe3j7vcs4-31" target="gIgE7tI3_6TQe3j7vcs4-29">
          <mxGeometry relative="1" as="geometry" />
        </mxCell>
        <mxCell id="gIgE7tI3_6TQe3j7vcs4-45" style="edgeStyle=orthogonalEdgeStyle;rounded=1;orthogonalLoop=1;jettySize=auto;html=1;exitX=0;exitY=0.5;exitDx=0;exitDy=0;exitPerimeter=0;startArrow=classic;startFill=1;endArrow=none;endFill=0;curved=0;strokeWidth=3;" edge="1" parent="1" source="gIgE7tI3_6TQe3j7vcs4-39" target="gIgE7tI3_6TQe3j7vcs4-29">
          <mxGeometry relative="1" as="geometry" />
        </mxCell>
        <mxCell id="gIgE7tI3_6TQe3j7vcs4-46" style="edgeStyle=orthogonalEdgeStyle;rounded=0;orthogonalLoop=1;jettySize=auto;html=1;exitX=1;exitY=0.5;exitDx=0;exitDy=0;exitPerimeter=0;strokeWidth=3;" edge="1" parent="1" source="gIgE7tI3_6TQe3j7vcs4-39">
          <mxGeometry relative="1" as="geometry">
            <mxPoint x="638.8199999999999" y="470" as="targetPoint" />
          </mxGeometry>
        </mxCell>
        <mxCell id="gIgE7tI3_6TQe3j7vcs4-48" value="" style="verticalLabelPosition=bottom;html=1;verticalAlign=top;align=center;strokeColor=none;fillColor=#00BEF2;shape=mxgraph.azure.virtual_network;pointerEvents=1;" vertex="1" parent="1">
          <mxGeometry x="450" y="366" width="40" height="24" as="geometry" />
        </mxCell>
        <mxCell id="gIgE7tI3_6TQe3j7vcs4-50" value="RBC VNet" style="text;html=1;align=center;verticalAlign=middle;whiteSpace=wrap;rounded=0;fontStyle=1" vertex="1" parent="1">
          <mxGeometry x="500" y="366" width="100" height="30" as="geometry" />
        </mxCell>
        <mxCell id="gIgE7tI3_6TQe3j7vcs4-52" value="RBC API" style="text;html=1;align=center;verticalAlign=middle;whiteSpace=wrap;rounded=0;fontStyle=2;fontColor=#994C00;" vertex="1" parent="1">
          <mxGeometry x="383.5" y="323" width="173" height="30" as="geometry" />
        </mxCell>
        <mxCell id="gIgE7tI3_6TQe3j7vcs4-29" value="&lt;span style=&quot;background-color: light-dark(#ffffff, var(--ge-dark-color, #121212));&quot;&gt;ExpressRoute Circuit&lt;/span&gt;" style="image;aspect=fixed;html=1;points=[];align=center;fontSize=12;image=img/lib/azure2/networking/ExpressRoute_Circuits.svg;" vertex="1" parent="1">
          <mxGeometry x="339.75" y="210" width="43.75" height="40" as="geometry" />
        </mxCell>
        <mxCell id="gIgE7tI3_6TQe3j7vcs4-54" value="&lt;h1 style=&quot;margin-top: 0px;&quot;&gt;RBC Azure &amp;lt;&amp;gt; On-Prem&lt;/h1&gt;&lt;div&gt;&lt;font style=&quot;font-size: 13px;&quot;&gt;This is an idea of how to reach an RBC API deployment hosted on Azure GovCloud from a server running on-premise.&lt;/font&gt;&lt;/div&gt;&lt;div&gt;&lt;font style=&quot;font-size: 13px;&quot;&gt;&lt;br&gt;&lt;/font&gt;&lt;/div&gt;&lt;div&gt;&lt;font style=&quot;font-size: 13px;&quot;&gt;The RBC API is deployed with a Terraform module. This deployment creates many resources, including an App Gateway within the RBC vnet.&lt;/font&gt;&lt;/div&gt;&lt;div&gt;&lt;font style=&quot;font-size: 13px;&quot;&gt;&lt;br&gt;&lt;/font&gt;&lt;/div&gt;&lt;div&gt;&lt;font style=&quot;font-size: 13px;&quot;&gt;To reach the App Gateway from the on-prem server, you will need to manually configure the following:&lt;/font&gt;&lt;/div&gt;&lt;div&gt;&lt;font style=&quot;font-size: 13px;&quot;&gt;&lt;br&gt;&lt;/font&gt;&lt;/div&gt;&lt;div&gt;&lt;font style=&quot;font-size: 13px;&quot;&gt;&amp;nbsp;&amp;nbsp;&amp;nbsp; 1) ExpressRoute circuit for the on-prem deployment. (This can be new or one that exists.)&lt;/font&gt;&lt;/div&gt;&lt;div&gt;&lt;font style=&quot;font-size: 13px;&quot;&gt;&lt;br&gt;&lt;/font&gt;&lt;/div&gt;&lt;div&gt;&lt;font style=&quot;font-size: 13px;&quot;&gt;&amp;nbsp;&amp;nbsp;&amp;nbsp; 2) An ExpressRoute Gateway deployed in the RBC vnet in a new subnet.&lt;br&gt;&lt;/font&gt;&lt;/div&gt;" style="text;html=1;whiteSpace=wrap;overflow=hidden;rounded=0;" vertex="1" parent="1">
          <mxGeometry x="700" y="-30" width="590" height="330" as="geometry" />
        </mxCell>
        <mxCell id="gIgE7tI3_6TQe3j7vcs4-41" value="" style="group;strokeColor=#FFE599;" vertex="1" connectable="0" parent="1">
          <mxGeometry x="440" y="410" width="140" height="120" as="geometry" />
        </mxCell>
        <mxCell id="gIgE7tI3_6TQe3j7vcs4-38" value="&lt;div&gt;ExpressRoute Subnet&lt;/div&gt;" style="sketch=0;outlineConnect=0;gradientColor=none;html=1;whiteSpace=wrap;fontSize=12;fontStyle=0;shape=mxgraph.aws4.group;grIcon=mxgraph.aws4.group_subnet;strokeColor=#879196;fillColor=none;verticalAlign=top;align=left;spacingLeft=30;fontColor=#879196;dashed=0;" vertex="1" parent="gIgE7tI3_6TQe3j7vcs4-41">
          <mxGeometry width="140" height="120" as="geometry" />
        </mxCell>
        <mxCell id="gIgE7tI3_6TQe3j7vcs4-39" value="ExpressRoute Gateway" style="sketch=0;aspect=fixed;pointerEvents=1;shadow=0;dashed=0;html=1;strokeColor=none;labelPosition=center;verticalLabelPosition=bottom;verticalAlign=top;align=center;fillColor=#00188D;shape=mxgraph.mscae.enterprise.gateway" vertex="1" parent="gIgE7tI3_6TQe3j7vcs4-41">
          <mxGeometry x="50" y="40" width="40" height="40" as="geometry" />
        </mxCell>
        <mxCell id="gIgE7tI3_6TQe3j7vcs4-35" value="Gateway Subnet" style="sketch=0;outlineConnect=0;gradientColor=none;html=1;whiteSpace=wrap;fontSize=12;fontStyle=0;shape=mxgraph.aws4.group;grIcon=mxgraph.aws4.group_subnet;strokeColor=#879196;fillColor=none;verticalAlign=top;align=left;spacingLeft=30;fontColor=#879196;dashed=0;" vertex="1" parent="1">
          <mxGeometry x="592" y="410" width="140" height="120" as="geometry" />
        </mxCell>
        <mxCell id="gIgE7tI3_6TQe3j7vcs4-34" value="RBC App Gateway" style="image;sketch=0;aspect=fixed;html=1;points=[];align=center;fontSize=12;image=img/lib/mscae/Application_Gateway.svg;" vertex="1" parent="1">
          <mxGeometry x="650" y="443" width="50" height="50" as="geometry" />
        </mxCell>
      </root>
    </mxGraphModel>
  </diagram>
</mxfile>
